REM MD5 05659382cc129d04500fff25368bc7e6
FILE "Tales of Destiny (Japan) (Preview Edition by Namco).bin" BINARY
  TRACK 01 MODE2/2352
    INDEX 01 00:00:00
  TRACK 02 AUDIO
    INDEX 00 30:59:27
    INDEX 01 31:01:27
  TRACK 03 AUDIO
    INDEX 00 33:02:68
    INDEX 01 33:04:68
  TRACK 04 AUDIO
    INDEX 00 34:38:48
    INDEX 01 34:40:48
  TRACK 05 AUDIO
    INDEX 00 36:33:43
    INDEX 01 36:35:43
REM LEADOUT 38:46:30
